<svg width="298.48" height="26" viewBox="0 0 207 18" fill="none" xmlns="http://www.w3.org/2000/svg">
<path d="M195.628 17.8948C193.546 17.8948 191.709 17.5362 190.117 16.819C188.543 16.0843 187.327 15.0523 186.47 13.7228C185.613 12.3759 185.185 10.8191 185.185 9.05235V8.86868C185.185 7.08445 185.613 5.52762 186.47 4.19819C187.327 2.85127 188.543 1.81922 190.117 1.10203C191.709 0.367342 193.546 0 195.628 0C197.744 0 199.59 0.367342 201.164 1.10203C202.738 1.81922 203.954 2.85127 204.811 4.19819C205.668 5.52762 206.097 7.08445 206.097 8.86868V9.05235C206.097 10.8366 205.668 12.3934 204.811 13.7228C203.954 15.0523 202.738 16.0843 201.164 16.819C199.59 17.5362 197.744 17.8948 195.628 17.8948ZM195.628 13.5654C199.458 13.5654 201.374 12.0873 201.374 9.13107V8.81621C201.374 7.34684 200.884 6.23607 199.904 5.48389C198.942 4.71422 197.517 4.32939 195.628 4.32939C193.773 4.32939 192.356 4.71422 191.377 5.48389C190.397 6.25356 189.908 7.36433 189.908 8.81621V9.13107C189.908 10.5829 190.389 11.685 191.351 12.4371C192.313 13.1893 193.738 13.5654 195.628 13.5654Z" fill="white"/>
<path d="M164.763 0.341064H169.407V6.8745H177.882V0.341064H182.526V17.5537H177.882V11.0202H169.407V17.5537H164.763V0.341064Z" fill="white"/>
<path d="M161.304 17.5537H156.66V11.5975C154.858 11.8424 153.187 11.9648 151.648 11.9648C148.972 11.9648 146.951 11.4051 145.587 10.2855C144.24 9.16602 143.566 7.49548 143.566 5.27394V0.341064H148.211V4.85412C148.211 5.86869 148.543 6.61212 149.208 7.08441C149.872 7.53922 150.922 7.76662 152.356 7.76662C153.581 7.76662 155.015 7.69665 156.66 7.55671V0.341064H161.304V17.5537Z" fill="white"/>
<path d="M122.828 0.341064H127.42V11.1514L135.947 0.341064H140.592V17.5537H136V6.74331L127.472 17.5537H122.828V0.341064Z" fill="white"/>
<path d="M100.396 13.4079H101.025C102.005 13.4079 102.696 13.1456 103.098 12.6208C103.518 12.096 103.745 11.1864 103.78 9.89195L103.964 0.341064H119.366V17.5537H114.722V4.51302H108.162L108.031 10.2593C107.996 12.6733 107.462 14.4925 106.43 15.7169C105.416 16.9414 103.911 17.5537 101.917 17.5537H100.396V13.4079Z" fill="white"/>
<path d="M81.0234 0.341064H85.6152V11.1514L94.1428 0.341064H98.787V17.5537H94.1953V6.74331L85.6677 17.5537H81.0234V0.341064Z" fill="white"/>
<path d="M60.6328 0.341064H71.6793C73.7959 0.341064 75.4489 0.848346 76.6384 1.86291C77.8454 2.85998 78.4489 4.24189 78.4489 6.00863V6.27101C78.4489 8.03775 77.8454 9.4284 76.6384 10.443C75.4489 11.4575 73.7959 11.9648 71.6793 11.9648H65.2771V17.5537H60.6328V0.341064ZM71.5744 7.92405C72.2741 7.92405 72.8076 7.78411 73.1749 7.50423C73.5423 7.22435 73.7259 6.81328 73.7259 6.27101V6.00863C73.7259 5.48385 73.5423 5.08152 73.1749 4.80164C72.8076 4.52176 72.2741 4.38182 71.5744 4.38182H65.2771V7.92405H71.5744Z" fill="white"/>
<path d="M39.9346 0.341064H57.1734V17.5537H52.5291V4.48678H44.5788V17.5537H39.9346V0.341064Z" fill="white"/>
<path d="M21.2354 0.341064H36.8736V4.35559H25.8796V6.95322H36.3488V10.9153H25.8796V13.5391H36.8736V17.5537H21.2354V0.341064Z" fill="white"/>
<path d="M0 0.341064H4.64425V6.8745H13.1194V0.341064H17.7636V17.5537H13.1194V11.0202H4.64425V17.5537H0V0.341064Z" fill="white"/>
</svg>
