<svg width="287.64" height="38.72" viewBox="0 0 199 27" fill="none" xmlns="http://www.w3.org/2000/svg">
<path d="M181.823 19.6791L190.482 14.8512C191.357 14.3614 192.013 13.959 192.45 13.6442C192.905 13.3118 193.211 13.0144 193.368 12.7521C193.543 12.4722 193.631 12.1573 193.631 11.8075V11.5713C193.631 10.9416 193.325 10.4605 192.712 10.1282C192.118 9.77834 191.252 9.60341 190.115 9.60341C188.89 9.60341 187.946 9.82207 187.281 10.2594C186.634 10.6792 186.31 11.3002 186.31 12.1223V12.6471H181.823V12.0961C181.823 9.9795 182.514 8.38769 183.896 7.32065C185.278 6.23611 187.325 5.69385 190.036 5.69385C192.642 5.69385 194.671 6.19238 196.123 7.18945C197.575 8.16903 198.301 9.54219 198.301 11.3089V11.5713C198.301 12.7608 197.89 13.8366 197.068 14.7987C196.263 15.7433 194.873 16.7666 192.896 17.8686L189.957 19.4954H198.616V23.2475H181.823V19.6791Z" fill="white"/>
<path d="M168.981 10.1806H162.605V6.03491H180.002V10.1806H173.626V23.2475H168.981V10.1806Z" fill="white"/>
<path d="M133.519 6.03491H143.962C146.043 6.03491 147.652 6.43724 148.789 7.24189C149.927 8.04655 150.495 9.1923 150.495 10.6792V10.9415C150.495 12.4459 149.892 13.6179 148.685 14.4575C149.454 14.8599 150.04 15.3759 150.443 16.0056C150.845 16.6354 151.046 17.37 151.046 18.2097V18.4721C151.046 19.9589 150.46 21.1309 149.288 21.988C148.134 22.8277 146.533 23.2475 144.486 23.2475H133.519V6.03491ZM144.381 19.2592C145.658 19.2592 146.297 18.8219 146.297 17.9473V17.6849C146.297 16.8278 145.658 16.3992 144.381 16.3992H138.163V19.2592H144.381ZM143.962 12.752C144.609 12.752 145.081 12.6558 145.378 12.4634C145.693 12.2535 145.851 11.9386 145.851 11.5188V11.2564C145.851 10.4343 145.221 10.0232 143.962 10.0232H138.163V12.752H143.962Z" fill="white"/>
<path d="M102.04 6.0349H106.632V16.8453L115.159 6.0349H119.804V23.2475H115.212V12.4371L106.684 23.2475H102.04V6.0349ZM110.935 4.77544C107.034 4.77544 105.084 3.26235 105.084 0.236149V0H108.81V0.236149C108.81 0.620983 108.985 0.918356 109.334 1.12827C109.702 1.32068 110.235 1.41689 110.935 1.41689C112.194 1.41689 112.824 1.02331 112.824 0.236149V0H116.786V0.236149C116.786 1.75799 116.296 2.895 115.317 3.64718C114.355 4.39936 112.894 4.77544 110.935 4.77544Z" fill="white"/>
<path d="M83.3408 6.03491H98.9791V10.0494H87.9851V12.6471H98.4543V16.6091H87.9851V19.233H98.9791V23.2475H83.3408V6.03491Z" fill="white"/>
<path d="M71.1659 23.5886C67.8773 23.5886 65.3846 22.9589 63.6879 21.6995C62.0086 20.4225 61.1689 18.5508 61.1689 16.0844V15.9007H65.8394V16.0844C65.8394 17.2564 66.268 18.1135 67.1251 18.6558C67.9998 19.1805 69.3992 19.4429 71.3233 19.4429C72.7577 19.4429 73.851 19.3117 74.6032 19.0494C75.3728 18.7695 75.7577 18.3671 75.7577 17.8424V17.58C75.7577 17.2651 75.644 17.029 75.4166 16.8715C75.2067 16.6966 74.8218 16.5829 74.2621 16.5304C73.7023 16.4605 72.8714 16.4255 71.7694 16.4255H68.2272V12.8045H71.6382C72.6003 12.8045 73.3437 12.7696 73.8685 12.6996C74.4107 12.6121 74.7868 12.4809 74.9967 12.306C75.2241 12.1311 75.3378 11.8862 75.3378 11.5713V11.3089C75.3378 10.3294 73.886 9.83956 70.9822 9.83956C69.1805 9.83956 67.886 10.102 67.0989 10.6267C66.3292 11.134 65.9444 11.9824 65.9444 13.1719V13.3556H61.2739V13.1719C61.2739 10.7404 62.1048 8.88622 63.7666 7.60927C65.4459 6.33232 67.8861 5.69385 71.0872 5.69385C72.9414 5.69385 74.5419 5.90376 75.8889 6.32358C77.2358 6.7434 78.2678 7.34689 78.985 8.13405C79.7022 8.90372 80.0608 9.83082 80.0608 10.9153V11.204C80.0608 12.6209 79.3786 13.7141 78.0142 14.4838C78.8188 14.8686 79.4311 15.3497 79.8509 15.9269C80.2707 16.5042 80.4806 17.1689 80.4806 17.9211V18.2097C80.4806 19.9065 79.6585 21.2272 78.0142 22.1718C76.3699 23.1164 74.0871 23.5886 71.1659 23.5886Z" fill="white"/>
<path d="M44.8427 19.1018H48.9097C49.242 19.1018 49.5132 19.0668 49.7231 18.9968L42.4287 6.74336V6.03491H47.2304L52.3732 15.1397L56.8338 6.03491H61.6092V6.74336L55.1545 18.9706C54.3148 20.5624 53.4402 21.6732 52.5306 22.3029C51.6385 22.9326 50.4752 23.2475 49.0409 23.2475H44.8427V19.1018Z" fill="white"/>
<path d="M24.04 6.03491H35.0865C37.2031 6.03491 38.8562 6.54219 40.0457 7.55676C41.2526 8.55383 41.8561 9.93573 41.8561 11.7025V11.9649C41.8561 13.7316 41.2526 15.1222 40.0457 16.1368C38.8562 17.1514 37.2031 17.6587 35.0865 17.6587H28.6843V23.2475H24.04V6.03491ZM34.9816 13.6179C35.6813 13.6179 36.2148 13.478 36.5821 13.1981C36.9495 12.9182 37.1332 12.5071 37.1332 11.9649V11.7025C37.1332 11.1777 36.9495 10.7754 36.5821 10.4955C36.2148 10.2156 35.6813 10.0757 34.9816 10.0757H28.6843V13.6179H34.9816Z" fill="white"/>
<path d="M0 19.1018H2.17781C3.05244 17.7199 3.51599 15.9619 3.56846 13.8278L3.7259 6.03491H19.233V19.1018H21.8831V26.7373H17.2388V23.2475H4.64425V26.7373H0V19.1018ZM14.5887 19.1018V10.2069H7.92409L7.84537 13.854C7.7929 16.0231 7.38182 17.7724 6.61215 19.1018H14.5887Z" fill="white"/>
</svg>
