<svg width="286.45" height="30.48" viewBox="0 0 198 22" fill="none" xmlns="http://www.w3.org/2000/svg">
<path d="M182.154 0.341064H197.793V4.35559H186.799V6.95322H197.268V10.9153H186.799V13.5391H197.793V17.5537H182.154V0.341064Z" fill="white"/>
<path d="M169.156 4.48678H162.78V0.341064H180.177V4.48678H173.801V17.5537H169.156V4.48678Z" fill="white"/>
<path d="M143.04 0.341064H147.632V11.1514L156.159 0.341064H160.804V17.5537H156.212V6.74331L147.684 17.5537H143.04V0.341064Z" fill="white"/>
<path d="M119 13.4079H121.178C122.052 12.026 122.516 10.268 122.568 8.13396L122.726 0.341064H138.233V13.4079H140.883V21.0434H136.239V17.5537H123.644V21.0434H119V13.4079ZM133.589 13.4079V4.51302H126.924L126.845 8.1602C126.793 10.3293 126.382 12.0785 125.612 13.4079H133.589Z" fill="white"/>
<path d="M108.455 17.8948C106.373 17.8948 104.536 17.5362 102.945 16.819C101.37 16.0843 100.155 15.0523 99.2974 13.7228C98.4403 12.3759 98.0117 10.8191 98.0117 9.05235V8.86868C98.0117 7.08445 98.4403 5.52762 99.2974 4.19819C100.155 2.85127 101.37 1.81922 102.945 1.10203C104.536 0.367342 106.373 0 108.455 0C110.571 0 112.417 0.367342 113.991 1.10203C115.565 1.81922 116.781 2.85127 117.638 4.19819C118.495 5.52762 118.924 7.08445 118.924 8.86868V9.05235C118.924 10.8366 118.495 12.3934 117.638 13.7228C116.781 15.0523 115.565 16.0843 113.991 16.819C112.417 17.5362 110.571 17.8948 108.455 17.8948ZM108.455 13.5654C112.286 13.5654 114.201 12.0873 114.201 9.13107V8.81621C114.201 7.34684 113.711 6.23607 112.732 5.48389C111.77 4.71422 110.344 4.32939 108.455 4.32939C106.601 4.32939 105.184 4.71422 104.204 5.48389C103.224 6.25356 102.735 7.36433 102.735 8.81621V9.13107C102.735 10.5829 103.216 11.685 104.178 12.4371C105.14 13.1893 106.566 13.5654 108.455 13.5654Z" fill="white"/>
<path d="M78.4863 0.341064H88.9293C91.0109 0.341064 92.6203 0.743391 93.7573 1.54805C94.8943 2.3527 95.4628 3.49846 95.4628 4.98532V5.2477C95.4628 6.75206 94.8593 7.92405 93.6523 8.76369C94.422 9.16602 95.008 9.68204 95.4103 10.3118C95.8126 10.9415 96.0138 11.6762 96.0138 12.5158V12.7782C96.0138 14.2651 95.4278 15.4371 94.2558 16.2942C93.1013 17.1338 91.5007 17.5537 89.4541 17.5537H78.4863V0.341064ZM89.3492 13.5654C90.6261 13.5654 91.2646 13.1281 91.2646 12.2534V11.9911C91.2646 11.1339 90.6261 10.7054 89.3492 10.7054H83.1306V13.5654H89.3492ZM88.9293 7.05817C89.5766 7.05817 90.0489 6.96197 90.3462 6.76955C90.6611 6.55964 90.8185 6.24477 90.8185 5.82495V5.56257C90.8185 4.74042 90.1888 4.32935 88.9293 4.32935H83.1306V7.05817H88.9293Z" fill="white"/>
<path d="M59.7871 0.341064H75.4254V4.35559H64.4314V6.95322H74.9006V10.9153H64.4314V13.5391H75.4254V17.5537H59.7871V0.341064Z" fill="white"/>
<path d="M39.3965 0.341064H50.443C52.5596 0.341064 54.2126 0.848346 55.4021 1.86291C56.6091 2.85998 57.2126 4.24189 57.2126 6.00863V6.27101C57.2126 8.03775 56.6091 9.4284 55.4021 10.443C54.2126 11.4575 52.5596 11.9648 50.443 11.9648H44.0407V17.5537H39.3965V0.341064ZM50.338 7.92405C51.0377 7.92405 51.5712 7.78411 51.9386 7.50423C52.3059 7.22435 52.4896 6.81328 52.4896 6.27101V6.00863C52.4896 5.48385 52.3059 5.08152 51.9386 4.80164C51.5712 4.52176 51.0377 4.38182 50.338 4.38182H44.0407V7.92405H50.338Z" fill="white"/>
<path d="M20.6973 0.341064H36.3355V4.35559H25.3415V6.95322H35.8108V10.9153H25.3415V13.5391H36.3355V17.5537H20.6973V0.341064Z" fill="white"/>
<path d="M0 0.341064H17.2388V17.5537H12.5946V4.48678H4.64425V17.5537H0V0.341064Z" fill="white"/>
</svg>
