<svg width="212.67" height="30.48" viewBox="0 0 147 22" fill="none" xmlns="http://www.w3.org/2000/svg">
<path d="M136.379 17.8948C134.297 17.8948 132.46 17.5362 130.868 16.819C129.294 16.0843 128.078 15.0523 127.221 13.7228C126.364 12.3759 125.936 10.8191 125.936 9.05235V8.86868C125.936 7.08445 126.364 5.52762 127.221 4.19819C128.078 2.85127 129.294 1.81922 130.868 1.10203C132.46 0.367342 134.297 0 136.379 0C138.495 0 140.341 0.367342 141.915 1.10203C143.489 1.81922 144.705 2.85127 145.562 4.19819C146.419 5.52762 146.848 7.08445 146.848 8.86868V9.05235C146.848 10.8366 146.419 12.3934 145.562 13.7228C144.705 15.0523 143.489 16.0843 141.915 16.819C140.341 17.5362 138.495 17.8948 136.379 17.8948ZM136.379 13.5654C140.209 13.5654 142.125 12.0873 142.125 9.13107V8.81621C142.125 7.34684 141.635 6.23607 140.655 5.48389C139.693 4.71422 138.268 4.32939 136.379 4.32939C134.524 4.32939 133.107 4.71422 132.128 5.48389C131.148 6.25356 130.659 7.36433 130.659 8.81621V9.13107C130.659 10.5829 131.14 11.685 132.102 12.4371C133.064 13.1893 134.489 13.5654 136.379 13.5654Z" fill="white"/>
<path d="M105.513 0.341064H110.157V6.8745H118.632V0.341064H123.276V17.5537H118.632V11.0202H110.157V17.5537H105.513V0.341064Z" fill="white"/>
<path d="M81.4736 13.4079H83.6514C84.5261 12.026 84.9896 10.268 85.0421 8.13396L85.1995 0.341064H100.707V13.4079H103.357V21.0434H98.7125V17.5537H86.1179V21.0434H81.4736V13.4079ZM96.0624 13.4079V4.51302H89.3977L89.319 8.1602C89.2665 10.3293 88.8555 12.0785 88.0858 13.4079H96.0624Z" fill="white"/>
<path d="M70.9284 17.8948C68.8468 17.8948 67.01 17.5362 65.4182 16.819C63.8439 16.0843 62.6282 15.0523 61.771 13.7228C60.9139 12.3759 60.4854 10.8191 60.4854 9.05235V8.86868C60.4854 7.08445 60.9139 5.52762 61.771 4.19819C62.6282 2.85127 63.8439 1.81922 65.4182 1.10203C67.01 0.367342 68.8468 0 70.9284 0C73.0449 0 74.8904 0.367342 76.4647 1.10203C78.039 1.81922 79.2548 2.85127 80.1119 4.19819C80.969 5.52762 81.3976 7.08445 81.3976 8.86868V9.05235C81.3976 10.8366 80.969 12.3934 80.1119 13.7228C79.2548 15.0523 78.039 16.0843 76.4647 16.819C74.8904 17.5362 73.0449 17.8948 70.9284 17.8948ZM70.9284 13.5654C74.7592 13.5654 76.6746 12.0873 76.6746 9.13107V8.81621C76.6746 7.34684 76.1848 6.23607 75.2053 5.48389C74.2432 4.71422 72.8175 4.32939 70.9284 4.32939C69.0742 4.32939 67.6573 4.71422 66.6777 5.48389C65.6981 6.25356 65.2083 7.36433 65.2083 8.81621V9.13107C65.2083 10.5829 65.6894 11.685 66.6514 12.4371C67.6135 13.1893 69.0392 13.5654 70.9284 13.5654Z" fill="white"/>
<path d="M46.6484 0.341064H60.8698V4.48678H51.2927V17.5537H46.6484V0.341064Z" fill="white"/>
<path d="M20.3652 0.341064H25.0095V5.95615H30.4409C32.6275 5.95615 34.298 6.43719 35.4525 7.39927C36.6245 8.36136 37.2105 9.74327 37.2105 11.545V11.8599C37.2105 13.6966 36.6245 15.1047 35.4525 16.0843C34.298 17.0639 32.6275 17.5537 30.4409 17.5537H20.3652V0.341064ZM30.3359 13.5129C31.7703 13.5129 32.4875 12.9706 32.4875 11.8861V11.5712C32.4875 11.0465 32.3038 10.6529 31.9365 10.3905C31.5692 10.1106 31.0356 9.97067 30.3359 9.97067H25.0095V13.5129H30.3359ZM38.5224 0.341064H43.1667V17.5537H38.5224V0.341064Z" fill="white"/>
<path d="M0 0.341064H10.443C12.5246 0.341064 14.1339 0.74339 15.2709 1.54804C16.4079 2.3527 16.9764 3.49845 16.9764 4.98531V5.2477C16.9764 6.75205 16.373 7.92405 15.166 8.76369C15.9356 9.16602 16.5216 9.68204 16.924 10.3118C17.3263 10.9415 17.5275 11.6762 17.5275 12.5158V12.7782C17.5275 14.2651 16.9415 15.4371 15.7695 16.2942C14.615 17.1338 13.0144 17.5537 10.9678 17.5537H0V0.341064ZM10.8628 13.5654C12.1398 13.5654 12.7783 13.1281 12.7783 12.2534V11.991C12.7783 11.1339 12.1398 10.7054 10.8628 10.7054H4.64425V13.5654H10.8628ZM10.443 7.05817C11.0902 7.05817 11.5625 6.96197 11.8599 6.76955C12.1748 6.55964 12.3322 6.24477 12.3322 5.82495V5.56257C12.3322 4.74042 11.7025 4.32935 10.443 4.32935H4.64425V7.05817H10.443Z" fill="white"/>
</svg>
